<svg width="20" height="20" fill="none" xmlns="http://www.w3.org/2000/svg"><path d="M10 10.625a5 5 0 110-10 5 5 0 010 10zm0-8.75a3.75 3.75 0 100 7.5 3.75 3.75 0 000-7.5zm4.375 17.5h-8.75A3.125 3.125 0 012.5 16.25v-2.5a.625.625 0 01.306-.537l3.125-1.875a.625.625 0 01.625 1.075L3.75 14.105v2.144a1.875 1.875 0 001.875 1.875h8.75a1.875 1.875 0 001.875-1.875v-2.144l-2.819-1.694a.627.627 0 01-.108-1.076.624.624 0 01.733.002l3.125 1.875a.624.624 0 01.319.537v2.5a3.125 3.125 0 01-3.125 3.125z" fill="#000"/></svg>