<svg width="50" height="50" fill="none" xmlns="http://www.w3.org/2000/svg"><g clip-path="url(#clip0_59_1729)" fill="#000"><path d="M14.21 40.263h-1.578v1.58h1.579v-1.58zm0-3.158h-1.578v1.58h1.579v-1.58zm0 6.316h-1.578V45h1.579v-1.579zm3.158 0H15.79V45h1.58v-1.579zm0-3.158H15.79v1.58h1.58v-1.58zm0-3.158H15.79v1.58h1.58v-1.58zm6.316 0h-1.579v1.58h1.58v-1.58zm0 6.316h-1.579V45h1.58v-1.579zm0-3.158h-1.579v1.58h1.58v-1.58zm3.158-3.158h-1.579v1.58h1.58v-1.58zm0 3.158h-1.579v1.58h1.58v-1.58zm0 3.158h-1.579V45h1.58v-1.579z"/><path d="M0 .526v34.21h9.474v14.738H30V34.737h8.947v14.737H50V.526H0zm48.421 47.369h-7.895V33.158H28.421v14.737h-7.895V33.947h-1.578v13.948h-7.895V33.158H1.579V2.105h46.842v45.79z"/><path d="M43.684 43.421h-1.579V45h1.58v-1.579zm0-3.158h-1.579v1.58h1.58v-1.58zm0-3.158h-1.579v1.58h1.58v-1.58zm3.158 0h-1.579v1.58h1.58v-1.58zm0 3.158h-1.579v1.58h1.58v-1.58zm0 3.158h-1.579V45h1.58v-1.579zM4.21 6.842v21.579h22.632V6.842H4.211zm2.357 20l5.622-7.589 4.452 3.203h2.951l4.515 4.386H6.567zm18.696-1.078l-5.03-4.887H17.15l-5.304-3.815L5.79 25.24V8.421h19.474v17.343z"/><path d="M18.158 10.35a3.425 3.425 0 00-3.421 3.422 3.425 3.425 0 003.42 3.421 3.425 3.425 0 003.422-3.421 3.425 3.425 0 00-3.421-3.421zm0 5.264a1.844 1.844 0 01-1.842-1.842c0-1.016.826-1.842 1.842-1.842S20 12.756 20 13.772a1.844 1.844 0 01-1.842 1.842zm27.895-2.719H29.21v1.579h16.842v-1.58zm0-3.948H29.21v1.58h16.842v-1.58zm0 7.895H29.21v1.579h16.842v-1.579zm0 3.948H29.21v1.578h16.842V20.79zm-8.421 3.947H29.21v1.579h8.42v-1.58zM4.474 3.684h-1.58v1.58h1.58v-1.58zm42.631 0h-1.579v1.58h1.58v-1.58zM4.474 30h-1.58v1.579h1.58V30zm42.631 0h-1.579v1.579h1.58V30z"/></g><defs><clipPath id="clip0_59_1729"><path fill="#fff" d="M0 0h50v50H0z"/></clipPath></defs></svg>