<svg width="50" height="44" fill="none" xmlns="http://www.w3.org/2000/svg"><path d="M49.306 36.154L28.933 3.006A4.583 4.583 0 0025 .806a4.582 4.582 0 00-3.933 2.2L.695 36.154a4.566 4.566 0 00-.098 4.674 4.559 4.559 0 004.029 2.366h40.75a4.56 4.56 0 004.03-2.366 4.566 4.566 0 00-.099-4.674zm-1.673 3.683a2.555 2.555 0 01-2.258 1.324H4.625c-.95 0-1.793-.494-2.258-1.324a2.557 2.557 0 01.056-2.618L22.798 4.07A2.567 2.567 0 0125 2.838c.905 0 1.729.46 2.202 1.232l20.376 33.148c.497.81.517 1.79.055 2.619zM25.119 8.573c-.562 0-1.016.454-1.016 1.015v17.27a1.015 1.015 0 102.031 0V9.589a1.016 1.016 0 00-1.015-1.015zm0 22.35c-.562 0-1.016.455-1.016 1.016v4.063a1.015 1.015 0 102.031 0v-4.063a1.016 1.016 0 00-1.015-1.016z" fill="#000"/></svg>