<svg width="50" height="50" fill="none" xmlns="http://www.w3.org/2000/svg"><g clip-path="url(#clip0_56_1661)" fill="#000"><path d="M48.942 43h-1.883v-3.69c0-.321-.123-.63-.341-.858a1.14 1.14 0 00-.823-.356h-2.412V15.46h5.48c.234-.003.46-.088.644-.24a1.11 1.11 0 00.368-.601 1.149 1.149 0 00-.06-.711 1.087 1.087 0 00-.465-.524L25.497.133a1.023 1.023 0 00-.994 0L.57 13.405a1.09 1.09 0 00-.437.523 1.15 1.15 0 00-.052.692c.055.231.18.437.355.588.176.151.394.239.621.25h5.48v22.637H4.105a1.14 1.14 0 00-.823.356c-.218.228-.34.537-.34.859v3.688H1.057c-.144 0-.287.03-.42.09s-.252.147-.351.257a1.1 1.1 0 00-.225.38A1.15 1.15 0 000 44.17v4.792c0 .293.111.574.31.78.198.208.467.324.748.324h47.884c.28 0 .55-.116.748-.323a1.13 1.13 0 00.31-.781V44.17a1.15 1.15 0 00-.062-.443 1.113 1.113 0 00-.224-.381 1.08 1.08 0 00-.352-.257 1.02 1.02 0 00-.42-.09zm-7.596-4.882h-1.672V15.46h1.672v22.66zM16.63 15.46v22.637H12.4V15.46h4.232zm2.116 0h1.672v22.637h-1.672V15.46zm3.788 0h4.972v22.637h-4.972V15.46zm7.088 0h1.672v22.637h-1.672V15.46zm3.788 0h4.232v22.637H33.41V15.46zM24.947 2.341l19.763 10.91H5.311L24.947 2.34zM8.654 15.459h1.672v22.637H8.654V15.46zM5.27 40.526h39.46v2.363H5.27v-2.363zm42.615 7.265H2.116v-2.583h1.523c.154.032.312.032.466 0h41.79c.154.032.312.032.466 0h1.523v2.584z"/><path d="M25.01 11.66c.62 0 1.225-.19 1.74-.55a3.25 3.25 0 001.154-1.467 3.398 3.398 0 00.178-1.888 3.315 3.315 0 00-.857-1.674 3.094 3.094 0 00-1.604-.895 3.01 3.01 0 00-1.809.186 3.164 3.164 0 00-1.405 1.204 3.395 3.395 0 00-.29 3.067c.158.397.388.757.68 1.06.29.304.635.545 1.015.709.38.164.787.249 1.199.249zm0-4.416a.99.99 0 01.565.178c.167.117.297.283.374.476.077.194.097.407.058.613-.04.205-.136.394-.278.542a.992.992 0 01-.52.29.976.976 0 01-.587-.06 1.026 1.026 0 01-.456-.39 1.093 1.093 0 01-.171-.59c.021-.265.137-.512.326-.692a.993.993 0 01.69-.279v-.088z"/></g><defs><clipPath id="clip0_56_1661"><path fill="#fff" d="M0 0h50v50H0z"/></clipPath></defs></svg>