<svg width="50" height="50" fill="none" xmlns="http://www.w3.org/2000/svg"><g clip-path="url(#clip0_58_1692)" fill="#000"><path d="M40.478 0H9.521C4.271 0 0 4.271 0 9.521v30.957C0 45.728 4.271 50 9.521 50h30.957C45.728 50 50 45.729 50 40.478V9.521C50 4.271 45.729 0 40.478 0zm8.057 40.478c0 4.443-3.614 8.057-8.056 8.057H9.52c-4.442 0-8.056-3.614-8.056-8.056V9.52c0-4.442 3.614-8.056 8.056-8.056h30.957c4.443 0 8.057 3.614 8.057 8.056v30.957z"/><path d="M40.625 5.86H30.078a.732.732 0 00-.732.732v3.914h-4.15a.732.732 0 100 1.464h14.697v3.215a4.546 4.546 0 01-4.541 4.542 4.546 4.546 0 01-4.541-4.542v-1.017a.732.732 0 10-1.465 0v1.018a6.013 6.013 0 006.006 6.005 6.013 6.013 0 006.005-6.005V6.591a.732.732 0 00-.732-.733zm-.732 4.646H30.81V7.324h9.082v3.182zm-1.368 12.15H15.088a3.178 3.178 0 00-3.174 3.174 3.177 3.177 0 003.174 3.174h11.475v14.404c0 .405.327.733.732.733h16.113a.732.732 0 00.733-.733V28.271a5.622 5.622 0 00-5.616-5.615zm-11.23 4.883H15.088a1.711 1.711 0 01-1.71-1.709c0-.942.768-1.709 1.71-1.709h23.437c.88 0 1.697.276 2.37.746L28.026 37.734V28.27a.732.732 0 00-.732-.732zm15.38 15.137H28.028v-2.442h14.649v2.442zm0-3.907H29.064L41.93 25.902c.47.673.746 1.49.746 2.37V38.77z"/><path d="M24.365 38.77H10.254V24.657a.732.732 0 00-.733-.732h-2.93a.732.732 0 00-.732.732v14.844c0 .404.328.732.733.732h2.197v3.174c0 .405.328.733.732.733h14.844a.732.732 0 00.733-.733v-3.906a.733.733 0 00-.733-.733zm-15.576 0H7.324V25.39H8.79v13.38zm14.844 3.906h-13.38v-2.442h13.38v2.442z"/></g><defs><clipPath id="clip0_58_1692"><path fill="#fff" d="M0 0h50v50H0z"/></clipPath></defs></svg>