<svg width="62" height="62" fill="none" xmlns="http://www.w3.org/2000/svg"><path d="M14 23c0 .6.4 1 1 1h2c.6 0 1-.4 1-1v-1h8v1c0 .6.4 1 1 1h2c.6 0 1-.4 1-1v-1.8c.6-.5 1-1.3 1-2.2v-2c0-1.4-.9-2.5-2.2-2.9l-.7-3.7C27.8 9 26.4 8 24.8 8h-5.6c-1.6 0-3 1-3.3 2.5l-.7 3.7c-1.3.3-2.2 1.4-2.2 2.8v2c0 .9.4 1.7 1 2.2V23zm3.8-12.1c.1-.5.8-.9 1.4-.9h5.5c.7 0 1.3.4 1.4.9l.6 3.1h-9.5l.6-3.1zM15 17c0-.6.4-1 1-1h12c.6 0 1 .4 1 1v2c0 .6-.4 1-1 1H16c-.6 0-1-.4-1-1v-2z" fill="#000"/><path d="M18 19a1 1 0 100-2 1 1 0 000 2zm8 0a1 1 0 100-2 1 1 0 000 2zM2 43c0 .6.4 1 1 1h2c.6 0 1-.4 1-1v-1h8v1c0 .6.4 1 1 1h2c.6 0 1-.4 1-1v-1.8c.6-.5 1-1.3 1-2.2v-2c0-1.4-.9-2.5-2.2-2.9l-.7-3.7c-.3-1.4-1.7-2.4-3.3-2.4H7.2c-1.6 0-3 1-3.3 2.5l-.7 3.7C1.9 34.5 1 35.6 1 37v2c0 .9.4 1.7 1 2.2V43zm3.8-12.1c.1-.5.8-.9 1.4-.9h5.5c.7 0 1.3.4 1.4.9l.6 3.1H5.2l.6-3.1zM3 37c0-.6.4-1 1-1h12c.6 0 1 .4 1 1v2c0 .6-.4 1-1 1H4c-.6 0-1-.4-1-1v-2z" fill="#000"/><path d="M6 39a1 1 0 100-2 1 1 0 000 2zm8 0a1 1 0 100-2 1 1 0 000 2zm12 5c0 .6.4 1 1 1h2c.6 0 1-.4 1-1v-1h8v1c0 .6.4 1 1 1h2c.6 0 1-.4 1-1v-1.8c.6-.5 1-1.3 1-2.2v-2c0-1.4-.9-2.5-2.2-2.9l-.7-3.7c-.3-1.4-1.7-2.4-3.3-2.4h-5.6c-1.6 0-3 1-3.3 2.5l-.7 3.7c-1.3.3-2.2 1.4-2.2 2.8v2c0 .9.4 1.7 1 2.2V44zm3.8-12.1c.1-.5.8-.9 1.4-.9h5.5c.7 0 1.3.4 1.4.9l.6 3.1h-9.5l.6-3.1zM27 38c0-.6.4-1 1-1h12c.6 0 1 .4 1 1v2c0 .6-.4 1-1 1H28c-.6 0-1-.4-1-1v-2z" fill="#000"/><path d="M30 40a1 1 0 100-2 1 1 0 000 2zm8 0a1 1 0 100-2 1 1 0 000 2z" fill="#000"/></svg>