<svg width="50" height="50" fill="none" xmlns="http://www.w3.org/2000/svg"><path d="M28.906 1.969c-.043.008-.086.02-.125.031H11.5C9.586 2 8 3.559 8 5.469v38.437C8 46.16 9.867 48 12.125 48h25.75C40.133 48 42 46.16 42 43.906V15.188a1.018 1.018 0 000-.407V14.5a.99.99 0 00-.281-.719l-11.5-11.5A.99.99 0 0029.5 2h-.313a.972.972 0 00-.28-.031zM11.5 4H28v8.344A3.666 3.666 0 0031.656 16H40v27.906C40 45.074 39.055 46 37.875 46h-25.75C10.945 46 10 45.074 10 43.906V5.47c0-.825.66-1.47 1.5-1.47zm18.5.938L39.063 14h-7.407A1.633 1.633 0 0130 12.344V4.938zM17 24v2h16v-2H17zm0 4v2h16v-2H17zm0 4v2h16v-2H17zm0 4v2h9v-2h-9z" fill="#000"/></svg>