<svg width="51" height="46" fill="none" xmlns="http://www.w3.org/2000/svg"><g clip-path="url(#clip0_29_136)" fill="#000"><path d="M25.5 20.753c5.732 0 10.394-4.653 10.394-10.372C35.894 4.66 31.232 0 25.5 0S15.106 4.653 15.106 10.372c0 5.72 4.662 10.38 10.394 10.38zm0-19.92c5.272 0 9.558 4.278 9.558 9.54 0 5.26-4.286 9.538-9.558 9.538s-9.558-4.278-9.558-9.539c0-5.26 4.286-9.538 9.558-9.538zm22.191 32.802h-2.648C40.89 26.89 33.429 22.712 25.5 22.712c-7.93 0-15.39 4.178-19.543 10.923H3.31A3.313 3.313 0 000 36.937v4.01a3.307 3.307 0 003.309 3.302h6.843c.843 0 1.529-.684 1.529-1.526v-7.57c0-.843-.686-1.526-1.53-1.526h-3.2a22.297 22.297 0 012.65-3.327l8.12 8.104a11.05 11.05 0 00-1.554 2.176h-3.885v1.977a2.3 2.3 0 01-2.298 2.292H3.952v1.143h43.104v-1.134h-6.032a2.3 2.3 0 01-2.298-2.293v-1.976h-3.885c-.434-.8-.952-1.526-1.554-2.176l8.121-8.105a21.76 21.76 0 012.649 3.327h-3.2a1.53 1.53 0 00-1.53 1.526v7.57c0 .843.686 1.526 1.53 1.526H47.7a3.307 3.307 0 003.308-3.301v-4.02a3.32 3.32 0 00-3.317-3.301zm-36.846 1.518v1.392H5.247v.834h5.598v2.801H5.247v.834h5.598v1.7c0 .385-.31.693-.694.693H3.31a2.463 2.463 0 01-2.473-2.46v-4.01a2.476 2.476 0 012.473-2.468h6.843c.376 0 .693.308.693.684zm29.962-5.437l-8.122 8.105a10.542 10.542 0 00-7.193-2.81 10.541 10.541 0 00-7.194 2.81l-8.121-8.105c4.069-3.894 9.566-6.17 15.306-6.17 5.74 0 11.255 2.276 15.324 6.17zm-6.484 11.698h3.56v1.142c0 1.084.56 2.043 1.403 2.602H11.722a3.121 3.121 0 001.404-2.602v-1.142h3.56l.116-.225a9.728 9.728 0 018.706-5.353 9.728 9.728 0 018.707 5.353l.108.225zm15.841-.467a2.476 2.476 0 01-2.473 2.468h-6.843a.691.691 0 01-.693-.692v-1.7h5.598v-.834h-5.598v-2.802h5.598v-.834h-5.598v-1.392c0-.384.31-.692.694-.692h6.842a2.476 2.476 0 012.473 2.468v4.01z"/><path d="M46.12 32.834l.126.2h1.236v-5.686l-.175-.125a2.651 2.651 0 00-1.58-.517h-.15a2.674 2.674 0 00-2.54 1.835l-.083.241.175.184a24.046 24.046 0 012.992 3.868zm-.542-5.294h.15c.326 0 .635.083.919.25v4.31a25.284 25.284 0 00-2.732-3.518 1.852 1.852 0 011.663-1.042zM4.88 32.834a24.428 24.428 0 012.999-3.877l.175-.183-.083-.242a2.692 2.692 0 00-2.54-1.834h-.159a2.65 2.65 0 00-1.579.517l-.167.133v5.678h1.236l.117-.192zm-.519-5.052c.284-.167.594-.25.92-.25h.15c.71 0 1.353.408 1.663 1.042A24.147 24.147 0 004.36 32.1v-4.32z"/><g clip-path="url(#clip1_29_136)"><path fill-rule="evenodd" clip-rule="evenodd" d="M41.624 19.69c-.053.039.112-.13.065-.066.001 0-.001.004-.008.013 0 0 .125.124.186.187.021.023-.017.07-.043.045a15.588 15.588 0 01-.188-.188l-.012.009z"/><path d="M41.44 19.753a.317.317 0 00.308-.352.31.31 0 00-.31-.274.321.321 0 00-.283.181.314.314 0 000 .263.32.32 0 00.281.181h.004zm-.003-.053a.269.269 0 01-.255-.213.264.264 0 01.076-.234.264.264 0 01.28-.054.268.268 0 01.159.208.264.264 0 01-.073.214.264.264 0 01-.184.08h-.003z"/></g></g><defs><clipPath id="clip0_29_136"><path fill="#fff" d="M0 0h51v46H0z"/></clipPath><clipPath id="clip1_29_136"><path fill="#fff" transform="translate(41 19)" d="M0 0h1v1H0z"/></clipPath></defs></svg>