<svg width="69" height="69" fill="none" xmlns="http://www.w3.org/2000/svg"><path d="M56.336 13.68H26.664l-3.516 16.172h-3.796V45.32h44.296V29.852h-3.796L56.336 13.68zm4.5 28.828H22.164v-9.844h3.234l3.516-16.172h25.172l2.918 13.36h-25.7v2.812h29.532v9.844zm-2.109 6.328h-6.329v2.812h6.329v-2.812zm-28.125 0h-6.329v2.812h6.329v-2.812z" fill="#000"/><path d="M28.492 36.18H25.68v2.812h2.812V36.18zm28.828 0h-2.812v2.812h2.812V36.18z" fill="#000"/><path stroke="#000" stroke-width="2" d="M.741 34.916l14.489-3.882M2.5 20.134l12.99 7.5M10.866 12.5l7.5 12.99"/></svg>