<svg width="64" height="64" fill="none" xmlns="http://www.w3.org/2000/svg"><path d="M14.76 7.361a1.232 1.232 0 00-1.028.556L3.875 22.694a1.232 1.232 0 001.027 1.918h2.466v28.333c0 .431.088.84.227 1.227h-.227a1.232 1.232 0 100 2.466h49.276a1.232 1.232 0 000-2.466h-.229c.14-.386.229-.796.229-1.227V24.61h2.454a1.232 1.232 0 001.027-1.917L50.268 7.917a1.233 1.233 0 00-1.018-.556H14.76zm.654 2.464h33.172l8.212 12.323H40.373c.397-1.93.47-4.044.247-6.32a1.232 1.232 0 00-1.299-1.11c-1.285.08-2.388.181-3.366-.026-.876-.187-1.719-.609-2.677-1.64a1.232 1.232 0 00-1.18-.795l-.026-.002v.002h-.002a1.232 1.232 0 00-1.213.777c-.964 1.046-1.804 1.472-2.685 1.66-.977.21-2.078.107-3.363.027a1.232 1.232 0 00-1.302 1.109c-.222 2.277-.152 4.39.243 6.32H7.212l8.202-12.325zm16.651 5.493c1.099.985 2.251 1.542 3.373 1.782.943.202 1.742.098 2.582.056.126 2.812-.05 5.369-.992 7.302-1.001 2.054-2.6 3.667-4.963 4.87-2.363-1.204-3.964-2.816-4.966-4.87-.942-1.933-1.127-4.49-1-7.302.84.042 1.646.146 2.59-.056 1.122-.24 2.277-.797 3.376-1.783zM9.832 24.61H24.48c.125.315.255.627.402.93 1.269 2.601 3.398 4.661 6.277 6.081a1.23 1.23 0 00.888.337 1.232 1.232 0 00.94-.349c2.867-1.42 4.988-3.477 6.253-6.072.147-.302.277-.612.402-.927H54.18v24.634H39.393v-7.383a1.232 1.232 0 001.227-1.237v-4.93a1.232 1.232 0 00-1.227-1.227H24.607a1.232 1.232 0 00-1.227 1.227v4.93a1.232 1.232 0 001.227 1.237v7.383H9.832V24.613zm3.69 9.857a1.232 1.232 0 00-1.226 1.227v8.62a1.233 1.233 0 100 2.464h8.62a1.232 1.232 0 000-2.463v-8.62a1.231 1.231 0 00-1.227-1.228h-6.166zm30.801 0a1.232 1.232 0 00-1.239 1.227v8.62a1.233 1.233 0 000 2.464h8.63a1.232 1.232 0 000-2.463v-8.62a1.232 1.232 0 00-1.237-1.228h-6.154zm-29.564 2.464h3.693v7.384H14.76v-7.384zm11.087 0h12.32v2.466h-12.32v-2.466zm19.704 0h3.7v7.384h-3.7v-7.384zm-18.477 4.93h3.7v4.917a1.233 1.233 0 100 2.466v4.928h-3.7v-12.31zm6.164 0h3.693v12.31h-3.693v-4.926a1.232 1.232 0 000-2.467v-4.917zM9.832 51.709h14.775v2.464H11.059a1.206 1.206 0 01-1.227-1.227v-1.237zm29.561 0H54.18v1.237c0 .695-.544 1.227-1.239 1.227H39.393v-2.464z" fill="#000"/></svg>