<svg width="64" height="64" fill="none" xmlns="http://www.w3.org/2000/svg"><path d="M14.549 40.372l-.549-.36-.549.36a16.566 16.566 0 01-7.543 2.632L5 43.088v3.543a12.832 12.832 0 008.677 12.148l.323.111.323-.11A12.833 12.833 0 0023 46.631v-3.543l-.908-.083a16.59 16.59 0 01-7.543-2.633zM13 56.327a10.833 10.833 0 01-6-9.696v-1.742a18.603 18.603 0 006-1.96v13.398zm8-9.696c0 4.151-2.363 7.884-6 9.696V42.929a18.613 18.613 0 006 1.961v1.741z" fill="#000"/><path d="M59 42.522V21h-4v-8h-2v8h-2v-4h-2v4h-2v-9.414L42.414 7H37V5h-2v2h-2V1h-2v6h-2V3h-2v4h-5.414L17 11.586V17h-2V9h-2v8h-2v-4H9v4H5v22.044c-.219.011-.436.032-.657.032H1v7.555A16.817 16.817 0 0013.758 62.97l.242.061.242-.061A16.818 16.818 0 0021.596 59H54c4.963 0 9-4.038 9-9a8.997 8.997 0 00-4-7.478zM47 23h10v18.525A8.936 8.936 0 0054 41h-7V23zM22.414 9h19.172l2 2H20.414l2-2zM19 13h26v28H27v-1.924h-3.343c-1.621 0-3.193-.311-4.657-.889V13zM7 19h10v18.174a12.741 12.741 0 01-2.293-1.805L14.338 35H15v-6H9v6h4.662l-.369.369A12.564 12.564 0 017 38.791V19zm6 12v2h-2v-2h2zm1 29.967A14.821 14.821 0 013 46.631v-5.555h1.343A14.55 14.55 0 0014 37.446a14.55 14.55 0 009.657 3.63H25v5.555a14.821 14.821 0 01-11 14.336zM54 57H23.438A16.815 16.815 0 0027 46.631V43h27c3.859 0 7 3.14 7 7s-3.141 7-7 7z" fill="#000"/><path d="M37.293 46.293L32 51.586l-1.293-1.293-1.414 1.414L32 54.414l6.707-6.707-1.414-1.414zm9 0L41 51.586l-1.293-1.293-1.414 1.414L41 54.414l6.707-6.707-1.414-1.414zM50 51.586l-1.293-1.293-1.414 1.414L50 54.414l6.707-6.707-1.414-1.414L50 51.586zM35 31h-6v6h6v-6zm-2 4h-2v-2h2v2zm-6-4h-6v6h6v-6zm-2 4h-2v-2h2v2zm18-4h-6v6h6v-6zm-2 4h-2v-2h2v2zm-6-12h-6v6h6v-6zm-2 4h-2v-2h2v2zm-6-4h-6v6h6v-6zm-2 4h-2v-2h2v2zm-10-6H9v6h6v-6zm-2 4h-2v-2h2v2zm30-2h-6v6h6v-6zm-2 4h-2v-2h2v2zm14 6h-6v6h6v-6zm-2 4h-2v-2h2v2zm2-12h-6v6h6v-6zm-2 4h-2v-2h2v2zM35 15h-6v6h6v-6zm-2 4h-2v-2h2v2zm-6-4h-6v6h6v-6zm-2 4h-2v-2h2v2zm18-4h-6v6h6v-6zm-2 4h-2v-2h2v2z" fill="#000"/></svg>