<svg width="64" height="64" fill="none" xmlns="http://www.w3.org/2000/svg"><path d="M9.822 3.667a1.232 1.232 0 00-1.227 1.236v32.024c0 4.662 1.383 8.998 3.739 12.65.067.24.206.456.399.616a23.573 23.573 0 006.024 6.017c.152.174.35.303.57.37A23.25 23.25 0 0032 60.334a23.27 23.27 0 0012.679-3.756 1.23 1.23 0 00.572-.373 23.573 23.573 0 006.036-6.039c.17-.15.296-.343.364-.56a23.258 23.258 0 003.755-12.679V4.903a1.233 1.233 0 00-1.237-1.236H9.822zm1.237 2.463H52.94v30.797c0 3.368-.812 6.537-2.22 9.354l-5.245-14.7a1.284 1.284 0 00-.036-.084l-.005-.015a1.232 1.232 0 00-.842-.686l-7.326-1.684a1.272 1.272 0 00-.467-.045v.003a1.23 1.23 0 00-.418.122c-2.893 1.39-5.63 1.602-8.748.004l-.017-.008a1.248 1.248 0 00-.173-.072l-.014-.004a1.243 1.243 0 00-.378-.053 1.23 1.23 0 00-.356.06l-7.29 1.677a1.232 1.232 0 00-.883.782L13.274 46.27a20.81 20.81 0 01-2.215-9.34V6.13zm20.94 2.464c-5.428 0-9.857 4.429-9.857 9.856 0 5.428 4.43 9.857 9.857 9.857s9.856-4.429 9.856-9.857c0-5.427-4.428-9.856-9.856-9.856zm0 2.463a7.376 7.376 0 017.393 7.393 7.376 7.376 0 01-7.393 7.393 7.374 7.374 0 01-7.39-7.393 7.374 7.374 0 017.39-7.393zm-5.04 20.531c3.461 1.613 6.924 1.4 10.078 0l6.048 1.389v21.7a20.839 20.839 0 01-11.086 3.19 20.83 20.83 0 01-11.084-3.19v-21.7l6.044-1.388zm2.567 1.639a1.233 1.233 0 00-1.162.844l-.111.332c-.206-.09-.41-.17-.618-.276a1.231 1.231 0 00-.583-.135v-.002a1.232 1.232 0 00-.543 2.328c.322.166.645.29.967.424l-4.032 12.116a1.233 1.233 0 00.49 1.419c5.6 3.627 11.168 2.965 16.086.027a1.232 1.232 0 00.536-1.446L36.517 36.74c.317-.126.636-.252.948-.402a1.232 1.232 0 10-1.073-2.218c-.22.106-.439.19-.657.282l-.108-.327a1.232 1.232 0 10-2.336.78l.086.257a8.3 8.3 0 01-2.766.007l.089-.27a1.23 1.23 0 00-1.174-1.625v.002zm4.624 4.205l3.688 11.062c-3.793 2.023-7.506 2.335-11.676-.007l3.674-11.034c1.462.275 2.906.253 4.314-.018v-.003zm-15.698 1.665V52.89a21 21 0 01-3.544-3.879l3.544-9.914zm27.096.015l3.537 9.907a21.003 21.003 0 01-3.537 3.871V39.112z" fill="#000"/></svg>