<svg width="50" height="50" fill="none" xmlns="http://www.w3.org/2000/svg"><path d="M23.361 32.035l10.6-13.822-7.197 15.866a1.997 1.997 0 11-3.403-2.044z" fill="#000"/><path d="M45.748 43.72H4.253c-.414 0-.798-.214-1.016-.567C1.15 39.743 0 35.454 0 31.072 0 17.401 11.215 6.28 25 6.28s25 11.155 25 24.866c0 4.397-1.119 8.549-3.236 12.006a1.19 1.19 0 01-1.016.569zM4.934 41.339h40.134c1.67-2.966 2.551-6.474 2.551-10.192 0-12.398-10.146-22.484-22.618-22.484-12.473 0-22.62 10.052-22.62 22.41 0 3.705.903 7.323 2.553 10.266z" fill="#000"/><path d="M25.055 13.938a1.19 1.19 0 01-1.19-1.191V7.98a1.191 1.191 0 112.38 0v4.766a1.19 1.19 0 01-1.19 1.191zM6.86 30.22H1.304a1.191 1.191 0 010-2.383H6.86a1.191 1.191 0 010 2.382zm41.27 0h-5.556a1.191 1.191 0 010-2.383h5.555a1.191 1.191 0 010 2.382z" fill="#000"/></svg>