<svg width="50" height="50" fill="none" xmlns="http://www.w3.org/2000/svg"><g clip-path="url(#clip0_59_1705)" fill="#000"><path d="M49.268 38.53h-2.646a.733.733 0 000 1.465h1.858a4.876 4.876 0 01-4.813 4.136H21.578a6.329 6.329 0 002.246-4.136h19.868a.732.732 0 100-1.465H38.8v-4.949h9.013A2.19 2.19 0 0050 31.393a2.19 2.19 0 00-2.04-2.182v-2.179a3.447 3.447 0 00-3.443-3.443h-1.861l-.658-4.688a5.547 5.547 0 002.214-4.449 5.584 5.584 0 00-5.578-5.577l-.115.003a6.343 6.343 0 00-6.052-4.474H6.333A6.34 6.34 0 000 10.737c0 .405.328.733.732.733h10.47v2.39a.732.732 0 101.464 0v-3.123a6.32 6.32 0 00-2.287-4.868h22.088a4.876 4.876 0 014.585 3.236 5.586 5.586 0 00-3.995 5.347c0 1.767.82 3.397 2.214 4.449l-.224 1.598H16.11a.732.732 0 000 1.465h18.73l-.228 1.625h-1.86c-.735 0-1.416.232-1.976.626H16.11a.732.732 0 100 1.465h13.477a3.424 3.424 0 00-.278 1.352v.899H16.11a.733.733 0 000 1.465h12.457a2.19 2.19 0 00-1.283 2.252H16.11a.733.733 0 000 1.464h11.995c.373.294.842.47 1.352.47h7.877v4.948h-14.2a.732.732 0 00-.733.733 4.874 4.874 0 01-4.868 4.868 4.873 4.873 0 01-4.867-4.868V16.79a.732.732 0 10-1.465 0v22.473a6.34 6.34 0 006.332 6.333h26.134A6.34 6.34 0 0050 39.263a.732.732 0 00-.732-.733zM11.146 10.005H1.52a4.876 4.876 0 014.813-4.136 4.876 4.876 0 014.813 4.136zm25.639 8.652a.732.732 0 00-.336-.721 4.095 4.095 0 01-1.927-3.484 4.117 4.117 0 014.113-4.112 4.117 4.117 0 014.112 4.112c0 1.422-.72 2.725-1.927 3.484a.732.732 0 00-.336.721l.693 4.932h-5.085l.693-4.932zm-4.033 6.397h11.765a1.98 1.98 0 011.978 1.979v2.173h-15.72v-2.174a1.98 1.98 0 011.977-1.978zm-4.018 6.34c0-.4.324-.724.723-.724h18.355a.724.724 0 010 1.447H29.457a.724.724 0 01-.723-.723z"/><path d="M31.136 13.204a.732.732 0 000-1.465H19.463a.732.732 0 100 1.465h11.673zM27.42 36.788a.732.732 0 000-1.464H16.11a.732.732 0 100 1.465h11.31z"/></g><defs><clipPath id="clip0_59_1705"><path fill="#fff" d="M0 0h50v50H0z"/></clipPath></defs></svg>