<svg width="45" height="45" fill="none" xmlns="http://www.w3.org/2000/svg"><path d="M22.5 36.818H8.182v2.046H22.5v-2.046zm14.318 0v2.046h4.091V0H10.227v4.09h2.046V2.046h26.59v34.773h-2.045z" fill="#000"/><path d="M30.682 30.682h-22.5v2.045h22.5v-2.045z" fill="#000"/><path d="M4.09 6.566V44.57c0 .238.19.43.422.43H34.35c.236 0 .424-.19.424-.43V6.566a.425.425 0 00-.422-.43H4.512a.424.424 0 00-.421.43zm2.046 1.616h26.591v34.773H6.137V8.181z" fill="#000"/><path d="M30.682 12.273h-22.5v2.045h22.5v-2.045zm0 6.137h-22.5v2.044h22.5V18.41zm0 6.135h-22.5v2.046h22.5v-2.046z" fill="#000"/></svg>