<svg width="50" height="50" fill="none" xmlns="http://www.w3.org/2000/svg"><g clip-path="url(#clip0_59_1820)" fill="#000"><path d="M30.86 17.578H19.14a1.465 1.465 0 000 2.93h11.72a1.465 1.465 0 100-2.93z"/><path d="M48.535 0c-.809 0-1.465.656-1.465 1.465v27.832h-6.209c.163-.459.252-.951.252-1.465v-1.717a4.401 4.401 0 002.93-4.142v-5.86a4.401 4.401 0 00-3.21-4.23l-2.138-8.554A4.388 4.388 0 0034.43 0H15.57a4.388 4.388 0 00-4.264 3.329l-2.138 8.553a4.401 4.401 0 00-3.21 4.231v5.86a4.401 4.401 0 002.93 4.142v1.717c0 .514.09 1.006.252 1.465H2.93V1.465a1.465 1.465 0 00-2.929 0v47.07a1.465 1.465 0 002.93 0v-10.45h44.14v10.45a1.465 1.465 0 002.93 0V1.465A1.466 1.466 0 0048.535 0zm-7.422 21.973c0 .807-.657 1.465-1.465 1.465h-1.464v-1.465c0-.808.657-1.465 1.464-1.465h1.465v1.465zM14.148 4.039a1.463 1.463 0 011.42-1.11h18.863c.674 0 1.258.457 1.421 1.11l1.92 7.68H26.908l4.764-3.176a1.465 1.465 0 00-1.625-2.438l-8.42 5.614h-9.4l1.92-7.68zM8.887 16.113c0-.807.657-1.465 1.465-1.465h29.296c.808 0 1.465.658 1.465 1.465v1.465h-1.465a4.4 4.4 0 00-4.394 4.395v1.465H14.746v-1.465a4.4 4.4 0 00-4.394-4.395H8.887v-1.465zm29.297 10.254v1.465c0 .808-.657 1.465-1.465 1.465a1.467 1.467 0 01-1.465-1.465v-1.465h2.93zm-5.608 2.93H17.424a4.39 4.39 0 00.252-1.465v-1.465h14.648v1.465c0 .514.09 1.006.252 1.465zm-17.83-2.93v1.465c0 .808-.657 1.465-1.465 1.465a1.467 1.467 0 01-1.465-1.465v-1.465h2.93zm-5.86-4.394v-1.465h1.466c.807 0 1.464.657 1.464 1.465v1.465h-1.464a1.466 1.466 0 01-1.465-1.465zM47.07 35.156H2.93v-2.93h44.14v2.93z"/></g><defs><clipPath id="clip0_59_1820"><path fill="#fff" d="M0 0h50v50H0z"/></clipPath></defs></svg>