<svg width="50" height="50" fill="none" xmlns="http://www.w3.org/2000/svg"><g clip-path="url(#clip0_31_115)" stroke="#000" stroke-width="2" stroke-linejoin="round"><path d="M6.25 43.75H3.125a1.563 1.563 0 01-1.563-1.563v-6.25a3.125 3.125 0 013.125-3.124h40.626a3.125 3.125 0 013.124 3.124v6.25a1.563 1.563 0 01-1.562 1.563h-4.688"/><path d="M48.438 37.5h-2.344a2.343 2.343 0 01-2.344-2.344v-2.343m-37.5 0l3.698-5.547a8.594 8.594 0 017.151-3.828h10.01c2.16 0 4.242.813 5.83 2.278l7.686 7.096M37.5 48.438a4.688 4.688 0 100-9.376 4.688 4.688 0 000 9.376zm-26.562 0a4.688 4.688 0 100-9.376 4.688 4.688 0 000 9.376zm-6.25-15.625v3.124a3.125 3.125 0 01-3.125 3.126m26.58-15.625v-3.125H15.625v3.125"/><path d="M37.5 45.313a1.563 1.563 0 100-3.126 1.563 1.563 0 000 3.126zm-26.562 0a1.563 1.563 0 100-3.126 1.563 1.563 0 000 3.126zm21.875-1.563H15.625m3.925-20.312v9.375m3.124-9.375v9.375m-4.705 3.906v1.562m1.562-3.125v1.563m1.563 0v1.562m1.562-3.125v1.563m1.563 0v1.562m1.562-3.125v1.563m1.563 0v1.562m1.562-3.125v1.563m1.563 0v1.562M48.438 1.563h-25v15.624h25V1.563zM25.781 7.031h4.688m-2.344 0V12.5"/><path d="M32.813 12.5V8.594a1.563 1.563 0 011.562-1.563v0a1.563 1.563 0 011.563 1.563V12.5m-3.125-2.344h3.124m3.126-3.906a3.771 3.771 0 001.104 2.667l.916.916a3.77 3.77 0 011.105 2.667"/><path d="M42.188 6.25a3.771 3.771 0 01-1.105 2.667l-.916.916a3.77 3.77 0 00-1.105 2.667v0m6.251-6.25v6.25m-12.5 4.688v3.125h6.25v-3.125m-4.688 3.125v7.03m3.125-7.03v9.375"/></g><defs><clipPath id="clip0_31_115"><path fill="#fff" d="M0 0h50v50H0z"/></clipPath></defs></svg>