<svg width="50" height="42" fill="none" xmlns="http://www.w3.org/2000/svg"><path d="M34.648.707c-5.37-.8-10.898 1.035-14.785 4.883a.944.944 0 000 1.367c.371.371.996.39 1.367 0 3.457-3.418 8.36-5.039 13.145-4.336 7.813 1.153 13.496 7.95 13.242 15.82-.02.606-.058 10.528-.097 20.137v.801l-9.668-7.031-.489.175a15.395 15.395 0 01-8.144.625c-4.082-.78-7.617-3.144-9.942-6.62a.973.973 0 00-1.621 1.074c2.617 3.906 6.582 6.562 11.192 7.441 2.91.566 5.898.371 8.672-.527l9.082 6.601c.312.215.683.332 1.054.332.274 0 .567-.058.82-.195.606-.313.977-.918.977-1.582v-1.074c.02-5.82.078-19.434.098-20.098.293-8.848-6.114-16.504-14.903-17.793zM9.375 37.543c-.8 0-1.465.664-1.465 1.484 0 .801.664 1.485 1.465 1.485.43 0 .8-.157 1.074-.45.274-.273.43-.664.41-1.074 0-.82-.644-1.445-1.484-1.445z" fill="#000"/><path d="M19.59 11.645c-1.64-3.145-5.235-5.176-9.16-5.176-4.434 0-8.145 2.48-9.922 6.64a.967.967 0 001.777.762c1.465-3.418 4.492-5.469 8.125-5.469 3.223 0 6.133 1.621 7.422 4.121.84 1.68 1.367 4.356-.977 7.579-1.171 1.62-2.695 2.734-3.925 3.652-1.602 1.172-2.793 2.129-3.418 3.515-.645 1.387-.938 3.36-.957 6.172 0 .528.43.977.957.977.527 0 .957-.43.976-.957.02-2.54.274-4.238.801-5.39.43-.958 1.387-1.7 2.813-2.755 1.328-.976 2.988-2.207 4.335-4.043 3.086-4.257 2.051-7.851 1.153-9.628z" fill="#000"/></svg>