<svg width="49" height="51" fill="none" xmlns="http://www.w3.org/2000/svg"><g clip-path="url(#clip0_29_317)" stroke="#000" stroke-width="1.15" stroke-linecap="round" stroke-linejoin="round"><path d="M35.217 34.941l-9.109 13.982M21.485 27.44s1.08 4.429-2.161 6.32c-3.242 1.89-8.645 4.415-9.185 8.21a24.965 24.965 0 000 6.953m7.111-36.049c0 5.548 1.408 15.947 9.147 15.947m4.573-1.381s-1.08 4.429 2.162 6.32c3.241 1.89 8.644 4.428 9.184 8.222a24.962 24.962 0 010 6.953M35.18 12.874c0 5.548-1.408 15.947-9.147 15.947m3.166-5.846a6.88 6.88 0 01-5.629 0M26.096.56c3.216 0 4.724 3.284 8.317 4.378 3.593 1.095 4.913 1.244 5.114 2.376.2 1.132-2.275 2.19-2.651 3.097a2.407 2.407 0 00-.088.262 2.137 2.137 0 01-.676 1.008 2.172 2.172 0 01-1.121.484 67.583 67.583 0 01-8.895.796v0a67.583 67.583 0 01-8.896-.796 2.172 2.172 0 01-1.12-.484 2.138 2.138 0 01-.676-1.008 2.385 2.385 0 00-.088-.262c-.377-.908-2.84-2.002-2.651-3.097.188-1.095 1.507-1.244 5.113-2.376C21.384 3.806 22.892.56 26.096.56v0z"/><path d="M17.213 12.24s1.508 4.74 8.895 4.74c7.388 0 8.896-4.74 8.896-4.74"/></g><defs><clipPath id="clip0_29_317"><path fill="#fff" d="M0 0h49v51H0z"/></clipPath></defs></svg>