<svg width="43" height="43" fill="none" xmlns="http://www.w3.org/2000/svg"><g clip-path="url(#clip0_29_339)" fill="#000"><path d="M32.922 27.204a2.07 2.07 0 00-2.466-.282l-.672-2.728v-.114a.675.675 0 00-.134-.195l-.948-.947a2.014 2.014 0 00-2.855 0l-.477-.484 8.896-8.983a.672.672 0 01.604-.181 6.625 6.625 0 003.098-.074 6.794 6.794 0 004.79-4.79 6.6 6.6 0 00.181-2.453 1.344 1.344 0 00-2.297-.786l-1.868 1.908a.67.67 0 01-.954 0l-1.882-1.901a.672.672 0 01-.194-.49.671.671 0 01.201-.485l1.875-1.908a1.344 1.344 0 00.316-1.397A1.344 1.344 0 0037.027.04a6.719 6.719 0 00-7.243 4.979 6.59 6.59 0 00-.074 3.09.672.672 0 01-.148.625l-9.01 8.963L9.562 6.72l-.35-1.774a2.015 2.015 0 00-.55-1.035L5.146.396a1.344 1.344 0 00-1.902 0L.396 3.246a1.344 1.344 0 000 1.9L3.904 8.66c.282.283.642.474 1.034.551l1.774.35 10.985 10.992-8.963 9.01a.671.671 0 01-.604.18 6.625 6.625 0 00-3.098.075 6.792 6.792 0 00-4.81 4.757 6.597 6.597 0 00-.182 2.452 1.344 1.344 0 00.894 1.109 1.344 1.344 0 001.404-.323l1.868-1.908a.671.671 0 01.954 0l1.901 1.901a.672.672 0 01-.006.955L5.18 40.669a1.344 1.344 0 00.793 2.29 6.719 6.719 0 007.243-4.979 6.59 6.59 0 00.074-3.09.672.672 0 01.147-.624l9.01-8.963.484.477a2.016 2.016 0 000 2.855l.947.927a.671.671 0 00.195.135h.114l2.721.672a2.017 2.017 0 00.296 2.553l9.507 9.487a2.015 2.015 0 002.849 0l2.849-2.849a2.016 2.016 0 000-2.849l-9.487-9.507zm-2.44-17.542a2.015 2.015 0 00.545-1.835 5.307 5.307 0 01.054-2.452 5.421 5.421 0 013.856-3.85 5.086 5.086 0 011.956-.14L34.99 3.291a2.017 2.017 0 000 2.856l1.902 1.914a2.016 2.016 0 002.855 0l1.908-1.941c.061.653 0 1.311-.181 1.941a5.429 5.429 0 01-3.83 3.83 5.22 5.22 0 01-2.472.054 2.016 2.016 0 00-1.841.544l-8.983 9.01-2.85-2.849 8.984-8.99zM12.518 33.338a2.015 2.015 0 00-.544 1.835c.174.81.155 1.65-.054 2.452a5.423 5.423 0 01-3.83 3.83c-.636.173-1.3.221-1.955.14l1.875-1.914a2.015 2.015 0 000-2.849l-1.902-1.895a2.015 2.015 0 00-2.855 0l-1.875 1.936a5.26 5.26 0 01.148-1.935 5.428 5.428 0 013.85-3.857 5.309 5.309 0 012.472-.054 2.016 2.016 0 001.841-.544l8.963-8.983 2.849 2.849-8.983 8.99zm14.687-9.654a.671.671 0 01.477.194l.477.477-3.803 3.803-.477-.477a.671.671 0 010-.947l2.856-2.856a.672.672 0 01.47-.194zM4.192 1.344l1.183 1.189-2.842 2.842-1.19-1.183 2.85-2.848zm.672 6.362L3.004 5.86l2.855-2.856 1.847 1.855a.663.663 0 01.188.342l.323 1.626-1.39 1.391L5.2 7.895a.672.672 0 01-.342-.189h.006zm3.138 1.237l.947-.948 15.91 15.883-.98.981L8.001 8.943zm20.748 16.73l.57 2.277-1.343 1.344-2.278-.571 3.05-3.05zm12.71 12.932l-2.855 2.855a.672.672 0 01-.948 0l-9.5-9.507a.672.672 0 010-.947l2.849-2.849a.67.67 0 01.947 0l9.507 9.5a.67.67 0 010 .948z"/><path d="M29.818 31.242a.336.336 0 00-.57.239.336.336 0 00.1.238l8.546 8.553c.064.065.15.1.242.1a.328.328 0 00.235-.1.334.334 0 00.073-.368.335.335 0 00-.073-.109l-8.553-8.553zm.954-.947a.338.338 0 00-.477.477l8.553 8.546a.328.328 0 00.363.075.316.316 0 00.107-.075.321.321 0 000-.47l-8.546-8.553zm.948-.947a.338.338 0 00-.478 0 .336.336 0 000 .47l8.553 8.553a.336.336 0 00.574-.239.343.343 0 00-.097-.238l-8.553-8.546z"/></g><defs><clipPath id="clip0_29_339"><path fill="#fff" d="M0 0h43v43H0z"/></clipPath></defs></svg>