<svg width="50" height="50" fill="none" xmlns="http://www.w3.org/2000/svg"><path d="M33.187 1.94h-.11a2.926 2.926 0 00-2.923 2.923v27.635c0 1.764-.639 3.522-1.799 4.95A6.525 6.525 0 0026.9 41.55c0 3.59 2.92 6.51 6.51 6.51h.938l-2.365-4.838.488-1.608h2.304l1.986 4.637.601-.48c.085-.068.845-.706 1.407-2.259a7.86 7.86 0 00.077-.225c.815-2.482.259-5.305-1.451-7.367a5.403 5.403 0 01-1.135-2.323c-.1-.477-.15-.965-.15-1.452V4.863a2.926 2.926 0 00-2.923-2.923zm-1.861 9.002h1.25v18.652h1.171V10.942h1.19v21.203c0 .33.023.659.062.986H31.3a8.33 8.33 0 00.026-.633V10.942zm3.611-1.171h-3.611v-.432h3.611v.432zm-1.86-6.66h.11c.965 0 1.75.786 1.75 1.752v3.304h-3.611V4.863c0-.966.785-1.751 1.75-1.751zm3.416 33.557c1.455 1.755 1.93 4.151 1.24 6.254a5.77 5.77 0 01-.58 1.27l-1.606-3.75h-3.945l-.874 2.881 1.698 3.474a5.347 5.347 0 01-4.354-5.247c0-1.222.423-2.417 1.193-3.364a9.22 9.22 0 001.868-3.883h4.098a6.618 6.618 0 001.262 2.365z" fill="#000"/><path d="M33.161 6.423c.858 0 1.555-.697 1.555-1.554 0-.858-.697-1.555-1.555-1.555a1.556 1.556 0 000 3.109zm0-1.937a.383.383 0 110 .766.383.383 0 010-.766zm.586 26.279h-1.171v1.911h1.171v-1.911zM18.514 43.577c-.857 0-1.555.697-1.555 1.555 0 .857.698 1.554 1.555 1.554s1.555-.697 1.555-1.554c0-.858-.698-1.555-1.555-1.555zm0 1.937a.383.383 0 110-.766.383.383 0 010 .766z" fill="#000"/><path d="M23.79 11.849a6.497 6.497 0 00.956-3.4c0-3.589-2.92-6.51-6.51-6.51h-.938l2.365 4.839-.488 1.607H16.87L14.884 3.75l-.6.48c-.085.067-1.966 1.623-2 5.94h-1.5v2.745l.52.3a8.402 8.402 0 014.232 7.298v24.625a2.926 2.926 0 002.923 2.923h.11a2.926 2.926 0 002.923-2.923V20.094c0-2.944.794-5.795 2.297-8.245zm-9.296-6.037l1.278 2.983-1.696 1.374h-.62c.019-2.26.591-3.63 1.037-4.357zm-.95 7.584a9.57 9.57 0 00-1.588-1.16v-.895h2.536l2.2-1.784h3.352l.874-2.88-1.698-3.474a5.347 5.347 0 014.354 5.247c0 .986-.27 1.95-.784 2.786-1.616 2.635-2.47 5.698-2.47 8.858v18.964H19.1V20.406h-1.172v18.652h-1.22V20.512a9.597 9.597 0 00-3.164-7.116zm3.165 26.834h3.611v.43h-3.611v-.43zm1.86 6.658h-.11a1.753 1.753 0 01-1.75-1.751v-3.304h3.611v3.304c0 .965-.786 1.751-1.751 1.751z" fill="#000"/><path d="M20.308 10.852h-4.756v3.389h4.756v-3.389zm-3.584 1.172h.62v1.045h-.62v-1.045zm2.412 1.045h-.62v-1.045h.62v1.045zm-.036 4.255h-1.172v1.911H19.1v-1.911z" fill="#000"/></svg>