<svg width="28" height="6" fill="none" xmlns="http://www.w3.org/2000/svg"><path d="M25.2.2A2.807 2.807 0 0022.4 3c0 1.544 1.263 2.8 2.8 2.8S28 4.544 28 3C28 1.455 26.737.2 25.2.2zm0 .933A1.86 1.86 0 0127.067 3 1.86 1.86 0 0125.2 4.866 1.86 1.86 0 0123.333 3 1.86 1.86 0 0125.2 1.133zM14 .2A2.807 2.807 0 0011.2 3c0 1.544 1.263 2.8 2.8 2.8s2.8-1.256 2.8-2.8c0-1.545-1.263-2.8-2.8-2.8zm0 .933A1.86 1.86 0 0115.867 3 1.86 1.86 0 0114 4.866 1.86 1.86 0 0112.133 3 1.86 1.86 0 0114 1.133zM2.8.2A2.807 2.807 0 000 3c0 1.544 1.263 2.8 2.8 2.8S5.6 4.544 5.6 3C5.6 1.455 4.337.2 2.8.2zm0 .933A1.86 1.86 0 014.667 3 1.86 1.86 0 012.8 4.866 1.859 1.859 0 01.933 3 1.86 1.86 0 012.8 1.133z" fill="#000"/></svg>